<svg width="30" height="27" viewBox="0 0 30 27" fill="none" xmlns="http://www.w3.org/2000/svg">
<path d="M15.0033 6.70381C10.7468 6.70381 7.31344 9.77401 7.31344 13.5803C7.31344 17.3867 10.7468 20.4569 15.0033 20.4569C19.2599 20.4569 22.6933 17.3867 22.6933 13.5803C22.6933 9.77401 19.2599 6.70381 15.0033 6.70381ZM15.0033 18.051C12.2527 18.051 10.0039 16.0461 10.0039 13.5803C10.0039 11.1146 12.246 9.1097 15.0033 9.1097C17.7607 9.1097 20.0028 11.1146 20.0028 13.5803C20.0028 16.0461 17.754 18.051 15.0033 18.051V18.051ZM24.8015 6.42253C24.8015 7.31426 23.9983 8.02645 23.0078 8.02645C22.0106 8.02645 21.2142 7.30828 21.2142 6.42253C21.2142 5.53678 22.0173 4.81861 23.0078 4.81861C23.9983 4.81861 24.8015 5.53678 24.8015 6.42253ZM29.8946 8.05039C29.7808 5.90185 29.232 3.99869 27.4718 2.43068C25.7184 0.862661 23.5901 0.371908 21.1874 0.264182C18.7111 0.138502 11.2889 0.138502 8.81261 0.264182C6.41662 0.365924 4.28834 0.856676 2.52817 2.42469C0.767987 3.9927 0.225878 5.89587 0.10541 8.04441C-0.0351366 10.2588 -0.0351366 16.8959 0.10541 19.1103C0.219186 21.2588 0.767987 23.162 2.52817 24.73C4.28834 26.298 6.40993 26.7888 8.81261 26.8965C11.2889 27.0222 18.7111 27.0222 21.1874 26.8965C23.5901 26.7947 25.7184 26.304 27.4718 24.73C29.2253 23.162 29.7741 21.2588 29.8946 19.1103C30.0351 16.8959 30.0351 10.2648 29.8946 8.05039V8.05039ZM26.6955 21.4862C26.1735 22.6593 25.1629 23.563 23.8444 24.0358C21.8701 24.736 17.1852 24.5744 15.0033 24.5744C12.8215 24.5744 8.12995 24.73 6.1623 24.0358C4.85053 23.5689 3.83993 22.6652 3.31121 21.4862C2.52817 19.7207 2.70887 15.5314 2.70887 13.5803C2.70887 11.6293 2.53486 7.43396 3.31121 5.67443C3.83324 4.50141 4.84384 3.59771 6.1623 3.12491C8.13664 2.42469 12.8215 2.58628 15.0033 2.58628C17.1852 2.58628 21.8767 2.43068 23.8444 3.12491C25.1562 3.59172 26.1668 4.49543 26.6955 5.67443C27.4785 7.43994 27.2978 11.6293 27.2978 13.5803C27.2978 15.5314 27.4785 19.7267 26.6955 21.4862Z" fill="white"/>
</svg>
