<svg width="30" height="27" viewBox="0 0 30 27" fill="none" xmlns="http://www.w3.org/2000/svg">
<path d="M27.8571 0.169922H2.13616C0.957589 0.169922 0 1.03801 0 2.10367V25.0572C0 26.1229 0.957589 26.991 2.13616 26.991H27.8571C29.0357 26.991 30 26.1229 30 25.0572V2.10367C30 1.03801 29.0357 0.169922 27.8571 0.169922ZM9.06696 23.1594H4.62054V10.3595H9.07366V23.1594H9.06696ZM6.84375 8.61137C5.41741 8.61137 4.26562 7.57565 4.26562 6.30644C4.26562 5.03723 5.41741 4.0015 6.84375 4.0015C8.26339 4.0015 9.42187 5.03723 9.42187 6.30644C9.42187 7.58164 8.27009 8.61137 6.84375 8.61137V8.61137ZM25.7344 23.1594H21.2879V16.9331C21.2879 15.4484 21.2545 13.5385 18.9777 13.5385C16.6607 13.5385 16.3058 15.155 16.3058 16.8253V23.1594H11.8594V10.3595H16.125V12.1077H16.1853C16.7812 11.1019 18.2344 10.0422 20.3973 10.0422C24.8973 10.0422 25.7344 12.6944 25.7344 16.1428V23.1594V23.1594Z" fill="white"/>
</svg>
